<svg width="64" height="48" viewBox="0 0 64 48" fill="none" xmlns="http://www.w3.org/2000/svg">
    <path
        d="M11.0852 41.9155C-5.46037 41.5164 -1.22584 8.48408 9.11547 7.98535C14.5319 7.98535 16.5016 17.4656 22.9031 19.4615C41.1229 23.4513 35.2138 0.997947 49.9866 0C57.373 0 67.517 14.3708 62.7897 33.9306C61.4766 39.0865 56.5852 49.099 47.5245 47.9015C39.1532 46.795 41.1229 35.9261 32.7517 29.9384C22.5937 22.6727 16.5016 41.9155 11.0852 41.9155Z"
        fill="url(#paint0_linear_218_6426)" />
    <path
        d="M58.1198 13.0081C63.0154 24.9854 55.6362 43.9085 48.2569 42.9116C41.8586 42.0471 55.1371 36.431 58.1006 13.0116C58.1019 13.0014 58.1159 12.9986 58.1198 13.0081Z"
        fill="#8DEDD7" stroke="#8DEDD7" stroke-width="2" stroke-linecap="round" />
    <path
        d="M4.72601 25.8077C2.57736 19.7744 5.95499 10.5617 9.43591 11.017C12.4804 11.4152 6.30264 14.2614 4.91301 25.7782C4.90055 25.8814 4.76089 25.9057 4.72601 25.8077Z"
        fill="#8DEDD7" stroke="#8DEDD7" stroke-linecap="round" />
    <defs>
        <linearGradient id="paint0_linear_218_6426" x1="64" y1="24" x2="0" y2="24"
            gradientUnits="userSpaceOnUse">
            <stop stop-color="#37AC9C" />
            <stop offset="1" stop-color="#287C76" />
        </linearGradient>
    </defs>
</svg>