<svg width="300" height="185" viewBox="0 0 300 185" fill="none" xmlns="http://www.w3.org/2000/svg">
    <path
        d="M61.4385 36.2229C116.663 -12.0743 206.337 -12.0743 261.562 36.2229L268.379 42.1741C271.031 44.4655 271.031 48.7486 268.379 51.0399L246.459 70.4769C245.133 71.6226 243.014 71.6226 241.688 70.4769L232.429 62.4172C192.637 27.8186 130.363 27.8186 90.5711 62.4172L80.7169 71.0198C79.3909 72.1655 77.2718 72.1655 75.9459 71.0198L54.0256 51.5828C51.3736 49.2914 51.3736 45.0084 54.0256 42.717L61.4385 36.2229ZM280.206 58.4457L299.371 75.3399C302.024 77.6313 302.024 81.9143 299.371 84.2057L209.953 162.63C207.301 164.921 202.952 164.921 200.3 162.63L134.515 104.951C133.852 104.378 132.785 104.378 132.122 104.951L66.3367 162.63C63.6847 164.921 59.3357 164.921 56.6837 162.63L0.62867 84.2057C-2.02333 81.9143 -2.02333 77.6313 0.62867 75.3399L19.7945 58.4457C22.4465 56.1543 26.7955 56.1543 29.4475 58.4457L95.2325 116.125C95.8952 116.698 96.9628 116.698 97.6255 116.125L163.411 58.4457C166.063 56.1543 170.412 56.1543 173.064 58.4457L238.849 116.125C239.511 116.698 240.579 116.698 241.242 116.125L307.027 58.4457C309.679 56.1543 314.028 56.1543 316.68 58.4457L280.206 58.4457Z"
        fill="#3B99FC" />
</svg> 